<svg xmlns="http://www.w3.org/2000/svg" xmlns:xlink="http://www.w3.org/1999/xlink" width="1014.197" height="281" viewBox="0 0 1014.197 281">
  <defs>
    <clipPath id="clip-path">
      <rect id="Rectangle_1" data-name="Rectangle 1" width="449.171" height="234.724" fill="none"/>
    </clipPath>
  </defs>
  <g id="Groupe_101" data-name="Groupe 101" transform="translate(-801.816 -268.521)">
    <g id="Groupe_3" data-name="Groupe 3" transform="matrix(1, 0.017, -0.017, 1, 805.913, 274.621)">
      <path id="Tracé_1" data-name="Tracé 1" d="M151.667,0l-33,125.081h14.106l-7.765,29.033H110.9L97.7,204.167H61.081l13.2-50.053H0l6.858-25.807L104.951,0ZM43.869,125.081H82.044L102.622,47.14Z" transform="translate(15.607 15.33)" fill="#fff"/>
      <g id="Groupe_2" data-name="Groupe 2">
        <g id="Groupe_1" data-name="Groupe 1" clip-path="url(#clip-path)">
          <path id="Tracé_2" data-name="Tracé 2" d="M161.06,0,127.9,125.082h23.338l-7.765,29.033H120.135L105.98,211.57H69.357l14.154-57.455H0l6.858-25.807L123.575,0ZM53.1,125.082H91.276l12.5-47.36,8.074-30.581Z" transform="translate(6.376 15.329)" stroke="#000" stroke-miterlimit="10" stroke-width="12"/>
          <path id="Tracé_3" data-name="Tracé 3" d="M107.281,167.85Q95.89,210.724,43.222,210.723,0,210.723,0,181.795A53.348,53.348,0,0,1,2.071,167.85l33-124.872Q46.456,0,99,0q43.352,0,43.353,29.033a53.409,53.409,0,0,1-2.071,13.945Z" transform="translate(158.475 12.001)" stroke="#000" stroke-width="1"/>
          <path id="Tracé_4" data-name="Tracé 4" d="M107.281,167.85Q95.89,210.724,43.222,210.723,0,210.723,0,181.795A53.348,53.348,0,0,1,2.071,167.85l33-124.872Q46.456,0,99,0q43.352,0,43.353,29.033a53.409,53.409,0,0,1-2.071,13.945Z" transform="translate(158.475 12.001)" fill="none" stroke="#000" stroke-miterlimit="10" stroke-width="26"/>
          <path id="Tracé_5" data-name="Tracé 5" d="M107.338,167.85q-11.4,42.873-64.093,42.873Q0,210.723,0,181.794A53.31,53.31,0,0,1,2.072,167.85L35.089,42.977Q46.481,0,99.05,0q43.376,0,43.376,29.033a53.373,53.373,0,0,1-2.072,13.945Zm7.62-135.342a15.016,15.016,0,0,0,.587-5.007q-.751-9.64-20.161-8.133L95,19.4q-23.685,1.842-27.983,16.84L27.747,171.586a14.96,14.96,0,0,0-.588,5.007q.751,9.644,20.161,8.133,24.069-1.872,28.372-16.869Z" transform="translate(294.744 12.001)" fill="#fff"/>
          <path id="Tracé_6" data-name="Tracé 6" d="M107.338,167.85q-11.4,42.873-64.093,42.873Q0,210.723,0,181.794A53.31,53.31,0,0,1,2.072,167.85L35.089,42.977Q46.481,0,99.05,0q43.376,0,43.376,29.033a53.373,53.373,0,0,1-2.072,13.945Zm7.62-135.342a15.016,15.016,0,0,0,.587-5.007q-.751-9.64-20.161-8.133L95,19.4q-23.685,1.842-27.983,16.84L27.747,171.586a14.96,14.96,0,0,0-.588,5.007q.751,9.644,20.161,8.133,24.069-1.872,28.372-16.869Z" transform="translate(294.744 12.001)" stroke="#000" stroke-miterlimit="10" stroke-width="26"/>
          <path id="Tracé_7" data-name="Tracé 7" d="M2.243,37.785c5.042,2.961,6.921,4.23,12.508-.524C21.079,31.878,25.155,25.1,29,17.913c3.071-5.74,2.511-10.522-1.776-15.073A28.931,28.931,0,0,0,23.58,0C17.6,13.769,11.441,26.752,0,36.295c.693.463,1.443,1.02,2.243,1.49" transform="translate(239.617 73.082)" fill="#fff"/>
          <path id="Tracé_8" data-name="Tracé 8" d="M2.52,18.745C4.75,20.212,6.957,21.716,9.2,23.16c2.655,1.71,4.365,1.4,5.991-1.29A125.348,125.348,0,0,0,22.075,9.794c2.065-4.478,1.45-7.972-3.854-9.305a6.45,6.45,0,0,0-7.064,1.457,108.176,108.176,0,0,0-10,11.043C-.822,15.536-.194,16.957,2.52,18.745" transform="translate(222.254 52.231)" fill="#fff"/>
          <path id="Tracé_9" data-name="Tracé 9" d="M20.174,20.04c.4,1.528,1.654,3.07,1.478,4.474-1.021,8.166-7.74,12.537-15.57,10.442C4.209,34.454,2.3,34.1.4,33.682q-.2.406-.4.813c2.168,2.656,4.063,5.618,6.585,7.88,2.358,2.114,4.954,5.226,8.725,3.381a24.737,24.737,0,0,0,7.668-5.484,59.445,59.445,0,0,0,7.249-10.679,153.029,153.029,0,0,0,7.488-15.565c1.048-2.552,1.769-5.718-.368-8.172A37.517,37.517,0,0,0,31.2.5c-1.293-.952-2.432-.526-3.292,1.124-2.612,5.023-5.5,9.9-8.068,14.948-.448.881.032,2.34.33,3.467" transform="translate(219.785 60.691)" fill="#fff"/>
          <path id="Tracé_10" data-name="Tracé 10" d="M46.15,11.892c-6.229-4.715-13.6-6.927-21.6-9.737C20.907,1.532,16.506.506,12.05.114A36.356,36.356,0,0,0,2.327.682C-.335,1.177-.7,2.749,1.17,4.776A17.6,17.6,0,0,0,6.141,8.819a144.84,144.84,0,0,0,16.106,6.972,58.013,58.013,0,0,0,21.889,3.36c2.053-.114,4.882.148,5.545-2.344.647-2.43-1.853-3.645-3.532-4.916" transform="translate(189.532 164.604)" fill="#fff"/>
          <path id="Tracé_11" data-name="Tracé 11" d="M25.983,4.045C25.029,2.732,23.893,1.553,22.576,0,16.619,10.674,9.985,20.2,0,27.433c2.039,1.387,3.784,2.584,5.54,3.766,4.07,2.741,7.628,1.551,10.368-1.9,3.772-4.754,7.209-9.777,10.738-14.721,2.612-3.657,1.769-7.185-.663-10.531" transform="translate(252.228 89.781)" fill="#fff"/>
          <path id="Tracé_12" data-name="Tracé 12" d="M68.656,57.852c-7.181-4.379-14.335-8.8-21.543-13.139a14.632,14.632,0,0,0-3.329-.948c.16,1.648.2,3.007.439,4.329.491,2.7.99,5.41,1.663,8.071,1.8,7.079,1.145,13.792-2.653,20.126-1.06,1.768-1.985,3.618-2.972,5.43-.318-.158-.635-.318-.954-.474.286-.841.592-1.673.854-2.521,1.753-5.665,4.463-11.184,3.052-17.384-1.111-4.888-2.393-9.735-3.511-14.62a21.826,21.826,0,0,0-5.891-10.471c-2.338-2.417-4.5-5-6.747-7.508-1.111-1.24-1.9-2.611-.881-4.208,1.034-1.62,2.62-1.755,4.366-1.252,2.416.694,4.823,1.469,7.286,1.933,2.192.413,4.612,1.367,6.42-.977a51.785,51.785,0,0,0,3.67-4.993,4.089,4.089,0,0,0-.8-5.636,41.279,41.279,0,0,0-5.095-3.966c-4.831-2.962-9.7-5.869-14.681-8.574C24.8-.318,21.9-.563,19.574,1.588A106.113,106.113,0,0,0,1.948,22.467,11.164,11.164,0,0,0,.371,31.6c1.164,4.6,2.167,9.252,2.956,13.928C5.378,57.682,10.235,68.3,19.644,76.564A4.042,4.042,0,0,1,20.3,77.79l-.475.547c-3.586-2.68-6.338-6.641-11.441-8.125-2.107,7.7-4.159,15.2-6.224,22.752,19.025-2.588,35.019,4.731,50.538,15.929,2.151-7.86,4.162-15.294,6.228-22.714a9.232,9.232,0,0,1,3.564-5.446A11.944,11.944,0,0,0,66.5,75.811c1.647-4.075,2.6-8.423,4.119-12.556.936-2.553.154-4.111-1.962-5.4" transform="translate(189.601 67.961)" fill="#fff"/>
          <path id="Tracé_13" data-name="Tracé 13" d="M0,0Z" transform="translate(105.538 135.949)" fill="#606060"/>
          <path id="Tracé_14" data-name="Tracé 14" d="M2.243,37.785c5.042,2.961,6.921,4.23,12.508-.524C21.079,31.878,25.155,25.1,29,17.913c3.071-5.74,2.511-10.522-1.776-15.073A28.931,28.931,0,0,0,23.58,0C17.6,13.769,11.441,26.752,0,36.295c.693.463,1.443,1.02,2.243,1.49" transform="translate(239.617 73.082)" fill="#fff"/>
          <path id="Tracé_15" data-name="Tracé 15" d="M2.52,18.745C4.75,20.212,6.957,21.716,9.2,23.16c2.655,1.71,4.365,1.4,5.991-1.29A125.348,125.348,0,0,0,22.075,9.794c2.065-4.478,1.45-7.972-3.854-9.305a6.45,6.45,0,0,0-7.064,1.457,108.176,108.176,0,0,0-10,11.043C-.822,15.536-.194,16.957,2.52,18.745" transform="translate(222.254 52.231)" fill="#fff"/>
          <path id="Tracé_16" data-name="Tracé 16" d="M20.174,20.04c.4,1.528,1.654,3.07,1.478,4.474-1.021,8.166-7.74,12.537-15.57,10.442C4.209,34.454,2.3,34.1.4,33.682q-.2.406-.4.813c2.168,2.656,4.063,5.618,6.585,7.88,2.358,2.114,4.954,5.226,8.725,3.381a24.737,24.737,0,0,0,7.668-5.484,59.445,59.445,0,0,0,7.249-10.679,153.029,153.029,0,0,0,7.488-15.565c1.048-2.552,1.769-5.718-.368-8.172A37.517,37.517,0,0,0,31.2.5c-1.293-.952-2.432-.526-3.292,1.124-2.612,5.023-5.5,9.9-8.068,14.948-.448.881.032,2.34.33,3.467" transform="translate(219.785 60.691)" fill="#fff"/>
          <path id="Tracé_17" data-name="Tracé 17" d="M46.15,11.892c-6.229-4.715-13.6-6.927-21.6-9.737C20.907,1.532,16.506.506,12.05.114A36.356,36.356,0,0,0,2.327.682C-.335,1.177-.7,2.749,1.17,4.776A17.6,17.6,0,0,0,6.141,8.819a144.84,144.84,0,0,0,16.106,6.972,58.013,58.013,0,0,0,21.889,3.36c2.053-.114,4.882.148,5.545-2.344.647-2.43-1.853-3.645-3.532-4.916" transform="translate(189.532 164.604)" fill="#fff"/>
          <path id="Tracé_18" data-name="Tracé 18" d="M25.983,4.045C25.029,2.732,23.893,1.553,22.576,0,16.619,10.674,9.985,20.2,0,27.433c2.039,1.387,3.784,2.584,5.54,3.766,4.07,2.741,7.628,1.551,10.368-1.9,3.772-4.754,7.209-9.777,10.738-14.721,2.612-3.657,1.769-7.185-.663-10.531" transform="translate(252.228 89.781)" fill="#fff"/>
          <path id="Tracé_19" data-name="Tracé 19" d="M68.656,57.852c-7.181-4.379-14.335-8.8-21.543-13.139a14.632,14.632,0,0,0-3.329-.948c.16,1.648.2,3.007.439,4.329.491,2.7.99,5.41,1.663,8.071,1.8,7.079,1.145,13.792-2.653,20.126-1.06,1.768-1.985,3.618-2.972,5.43-.318-.158-.635-.318-.954-.474.286-.841.592-1.673.854-2.521,1.753-5.665,4.463-11.184,3.052-17.384-1.111-4.888-2.393-9.735-3.511-14.62a21.826,21.826,0,0,0-5.891-10.471c-2.338-2.417-4.5-5-6.747-7.508-1.111-1.24-1.9-2.611-.881-4.208,1.034-1.62,2.62-1.755,4.366-1.252,2.416.694,4.823,1.469,7.286,1.933,2.192.413,4.612,1.367,6.42-.977a51.785,51.785,0,0,0,3.67-4.993,4.089,4.089,0,0,0-.8-5.636,41.279,41.279,0,0,0-5.095-3.966c-4.831-2.962-9.7-5.869-14.681-8.574C24.8-.318,21.9-.563,19.574,1.588A106.113,106.113,0,0,0,1.948,22.467,11.164,11.164,0,0,0,.371,31.6c1.164,4.6,2.167,9.252,2.956,13.928C5.378,57.682,10.235,68.3,19.644,76.564A4.042,4.042,0,0,1,20.3,77.79l-.475.547c-3.586-2.68-6.338-6.641-11.441-8.125-2.107,7.7-4.159,15.2-6.224,22.752,19.025-2.588,35.019,4.731,50.538,15.929,2.151-7.86,4.162-15.294,6.228-22.714a9.232,9.232,0,0,1,3.564-5.446A11.944,11.944,0,0,0,66.5,75.811c1.647-4.075,2.6-8.423,4.119-12.556.936-2.553.154-4.111-1.962-5.4" transform="translate(189.601 67.961)" fill="#fff"/>
        </g>
      </g>
    </g>
    <text id="Coups_de_MAIN" data-name="Coups de 
MAIN" transform="translate(1282.014 356.521)" font-size="91" font-family="Montserrat-Black, Montserrat" font-weight="800"><tspan x="0" y="0">COUPS DE </tspan><tspan font-size="181"><tspan x="0" y="148">MAIN</tspan></tspan></text>
  </g>
</svg>
