<svg xmlns="http://www.w3.org/2000/svg" xmlns:xlink="http://www.w3.org/1999/xlink" width="1028.986" height="281" viewBox="0 0 1028.986 281">
  <defs>
    <clipPath id="clip-path">
      <rect id="Rectangle_1" data-name="Rectangle 1" width="465.956" height="243.495" fill="none"/>
    </clipPath>
  </defs>
  <g id="Groupe_105" data-name="Groupe 105" transform="translate(-764.393 -954.726)">
    <g id="Groupe_104" data-name="Groupe 104">
      <text id="Coups_de_MAIN" data-name="Coups de 
MAIN" transform="translate(1259.38 1042.726)" fill="#365b6d" font-size="91" font-family="Montserrat-Black, Montserrat" font-weight="800"><tspan x="0" y="0">COUPS DE </tspan><tspan font-size="181"><tspan x="0" y="148">MAIN</tspan></tspan></text>
      <g id="Groupe_15" data-name="Groupe 15" transform="matrix(1, 0.017, -0.017, 1, 768.643, 954.726)">
        <path id="Tracé_1" data-name="Tracé 1" d="M174.242,16.607,140.009,146.362h14.634l-8.056,30.117H131.955L118.262,228.4H80.27l13.692-51.924H16.907l7.114-26.771L125.78,16.607ZM62.415,146.362h39.6l21.347-80.854Z" transform="translate(-0.716 -0.704)" fill="#fff"/>
        <g id="Groupe_2" data-name="Groupe 2">
          <g id="Groupe_1" data-name="Groupe 1" clip-path="url(#clip-path)">
            <path id="Tracé_2" data-name="Tracé 2" d="M173.985,16.605l-34.4,129.756H163.8l-8.056,30.117H131.531l-14.684,59.6H78.856l14.683-59.6H6.907l7.114-26.771L135.1,16.605ZM61.992,146.362h39.6l12.971-49.13,8.376-31.724Z" transform="translate(-0.293 -0.704)" fill="#365b6d" stroke="#365b6d" stroke-miterlimit="10" stroke-width="12"/>
            <path id="Tracé_3" data-name="Tracé 3" d="M282.961,187.122Q271.145,231.6,216.508,231.6q-44.837,0-44.837-30.009a55.34,55.34,0,0,1,2.148-14.466L208.051,57.583Q219.863,13,274.368,13q44.972,0,44.973,30.117a55.4,55.4,0,0,1-2.148,14.466Z" transform="translate(-7.274 -0.551)" fill="#365b6d" stroke="#365b6d" stroke-width="1"/>
            <path id="Tracé_4" data-name="Tracé 4" d="M282.961,187.122Q271.145,231.6,216.508,231.6q-44.837,0-44.837-30.009a55.34,55.34,0,0,1,2.148-14.466L208.051,57.583Q219.863,13,274.368,13q44.972,0,44.973,30.117a55.4,55.4,0,0,1-2.148,14.466Z" transform="translate(-7.274 -0.551)" fill="none" stroke="#365b6d" stroke-miterlimit="10" stroke-width="26"/>
            <path id="Tracé_5" data-name="Tracé 5" d="M430.635,187.122Q418.813,231.6,364.147,231.6q-44.862,0-44.861-30.01a55.3,55.3,0,0,1,2.15-14.465L355.686,57.583Q367.5,13,422.038,13q45,0,45,30.117a55.369,55.369,0,0,1-2.149,14.466Zm7.905-140.4a15.577,15.577,0,0,0,.609-5.194q-.779-10-20.915-8.437l-.4.032q-24.57,1.91-29.029,17.469L348.069,191a15.52,15.52,0,0,0-.61,5.194q.779,10,20.915,8.437,24.968-1.942,29.432-17.5Z" transform="translate(-13.528 -0.551)" fill="#fff"/>
            <path id="Tracé_6" data-name="Tracé 6" d="M430.635,187.122Q418.813,231.6,364.147,231.6q-44.862,0-44.861-30.01a55.3,55.3,0,0,1,2.15-14.465L355.686,57.583Q367.5,13,422.038,13q45,0,45,30.117a55.369,55.369,0,0,1-2.149,14.466Zm7.905-140.4a15.577,15.577,0,0,0,.609-5.194q-.779-10-20.915-8.437l-.4.032q-24.57,1.91-29.029,17.469L348.069,191a15.52,15.52,0,0,0-.61,5.194q.779,10,20.915,8.437,24.968-1.942,29.432-17.5Z" transform="translate(-13.528 -0.551)" fill="#365b6d" stroke="#365b6d" stroke-miterlimit="10" stroke-width="26"/>
            <path id="Tracé_7" data-name="Tracé 7" d="M261.9,118.364c5.231,3.072,7.179,4.388,12.976-.544,6.564-5.584,10.792-12.618,14.78-20.07,3.186-5.955,2.6-10.915-1.842-15.636a30.014,30.014,0,0,0-3.78-2.947c-6.207,14.284-12.592,27.752-24.461,37.651.719.481,1.5,1.058,2.327,1.546" transform="translate(-10.998 -3.354)" fill="#fff"/>
            <path id="Tracé_8" data-name="Tracé 8" d="M243.375,76.025c2.313,1.523,4.6,3.083,6.931,4.58,2.754,1.774,4.529,1.454,6.215-1.338a130.035,130.035,0,0,0,7.139-12.528c2.142-4.645,1.5-8.27-4-9.653a6.691,6.691,0,0,0-7.328,1.511,112.221,112.221,0,0,0-10.374,11.455c-2.053,2.643-1.4,4.118,1.414,5.972" transform="translate(-10.201 -2.397)" fill="#fff"/>
            <path id="Tracé_9" data-name="Tracé 9" d="M259.014,86.533c.418,1.585,1.716,3.185,1.533,4.641-1.059,8.471-8.03,13.006-16.152,10.833-1.943-.52-3.927-.885-5.893-1.322q-.208.421-.416.844c2.249,2.755,4.215,5.828,6.831,8.174,2.446,2.193,5.14,5.421,9.051,3.507a25.662,25.662,0,0,0,7.955-5.689,61.665,61.665,0,0,0,7.52-11.078A158.745,158.745,0,0,0,277.211,80.3c1.087-2.647,1.835-5.932-.382-8.477a38.919,38.919,0,0,0-6.372-5.556c-1.342-.987-2.523-.546-3.415,1.166-2.71,5.21-5.71,10.272-8.37,15.507-.464.914.034,2.428.342,3.6" transform="translate(-10.088 -2.786)" fill="#fff"/>
            <path id="Tracé_10" data-name="Tracé 10" d="M253.188,190.646c-6.462-4.892-14.111-7.186-22.4-10.1-3.784-.645-8.349-1.71-12.971-2.116a37.714,37.714,0,0,0-10.087.589c-2.761.513-3.143,2.144-1.2,4.247a18.261,18.261,0,0,0,5.157,4.194,150.251,150.251,0,0,0,16.708,7.232,60.181,60.181,0,0,0,22.707,3.486c2.13-.118,5.065.153,5.752-2.431.671-2.52-1.922-3.781-3.664-5.1" transform="translate(-8.699 -7.555)" fill="#fff"/>
            <path id="Tracé_11" data-name="Tracé 11" d="M300.183,101.453c-.989-1.362-2.167-2.586-3.534-4.2-6.18,11.073-13.062,20.96-23.42,28.458,2.115,1.438,3.925,2.68,5.747,3.907,4.222,2.843,7.913,1.609,10.755-1.973,3.913-4.932,7.478-10.142,11.139-15.271,2.71-3.794,1.835-7.453-.688-10.925" transform="translate(-11.577 -4.121)" fill="#fff"/>
            <path id="Tracé_12" data-name="Tracé 12" d="M276.611,133.634c-7.449-4.543-14.871-9.132-22.348-13.63a15.179,15.179,0,0,0-3.453-.983c.166,1.709.207,3.119.456,4.491.509,2.8,1.027,5.612,1.726,8.373,1.863,7.343,1.187,14.307-2.752,20.878-1.1,1.834-2.059,3.753-3.084,5.633-.329-.164-.659-.329-.989-.492.3-.872.614-1.735.886-2.615,1.819-5.877,4.63-11.6,3.166-18.034-1.153-5.071-2.482-10.1-3.642-15.166a22.642,22.642,0,0,0-6.111-10.862c-2.426-2.507-4.668-5.19-7-7.788-1.153-1.286-1.972-2.708-.914-4.365,1.073-1.681,2.718-1.82,4.53-1.3,2.506.72,5,1.524,7.559,2.005,2.273.428,4.784,1.418,6.66-1.013a53.719,53.719,0,0,0,3.808-5.18,4.242,4.242,0,0,0-.831-5.846,42.821,42.821,0,0,0-5.285-4.114c-5.011-3.073-10.066-6.089-15.229-8.894-2.652-1.441-5.661-1.695-8.068.536a110.078,110.078,0,0,0-18.285,21.66,11.581,11.581,0,0,0-1.636,9.478c1.208,4.771,2.248,9.6,3.066,14.449,2.128,12.6,7.166,23.62,16.927,32.192a4.193,4.193,0,0,1,.678,1.272l-.493.567c-3.72-2.78-6.575-6.889-11.869-8.429-2.185,7.988-4.314,15.77-6.456,23.6,19.736-2.684,36.328,4.908,52.426,16.524,2.231-8.153,4.317-15.866,6.461-23.562a9.577,9.577,0,0,1,3.7-5.65,12.39,12.39,0,0,0,4.161-5.105c1.708-4.227,2.7-8.737,4.273-13.026.971-2.649.16-4.264-2.035-5.6" transform="translate(-8.702 -3.119)" fill="#fff"/>
            <path id="Tracé_13" data-name="Tracé 13" d="M114.326,147.269Z" transform="translate(-4.844 -6.24)" fill="#606060"/>
            <path id="Tracé_37" data-name="Tracé 37" d="M282.961,187.122Q271.145,231.6,216.508,231.6q-44.837,0-44.837-30.009a55.34,55.34,0,0,1,2.148-14.466L208.051,57.583Q219.863,13,274.368,13q44.972,0,44.973,30.117a55.4,55.4,0,0,1-2.148,14.466Z" transform="translate(-7.274 -0.551)" fill="none" stroke="#365b6d" stroke-miterlimit="10" stroke-width="26"/>
            <path id="Tracé_38" data-name="Tracé 38" d="M261.9,118.364c5.231,3.072,7.179,4.388,12.976-.544,6.564-5.584,10.792-12.618,14.78-20.07,3.186-5.955,2.6-10.915-1.842-15.636a30.014,30.014,0,0,0-3.78-2.947c-6.207,14.284-12.592,27.752-24.461,37.651.719.481,1.5,1.058,2.327,1.546" transform="translate(-10.998 -3.354)" fill="#fff"/>
            <path id="Tracé_39" data-name="Tracé 39" d="M243.375,76.025c2.313,1.523,4.6,3.083,6.931,4.58,2.754,1.774,4.529,1.454,6.215-1.338a130.035,130.035,0,0,0,7.139-12.528c2.142-4.645,1.5-8.27-4-9.653a6.691,6.691,0,0,0-7.328,1.511,112.221,112.221,0,0,0-10.374,11.455c-2.053,2.643-1.4,4.118,1.414,5.972" transform="translate(-10.201 -2.397)" fill="#fff"/>
            <path id="Tracé_40" data-name="Tracé 40" d="M259.014,86.533c.418,1.585,1.716,3.185,1.533,4.641-1.059,8.471-8.03,13.006-16.152,10.833-1.943-.52-3.927-.885-5.893-1.322q-.208.421-.416.844c2.249,2.755,4.215,5.828,6.831,8.174,2.446,2.193,5.14,5.421,9.051,3.507a25.662,25.662,0,0,0,7.955-5.689,61.665,61.665,0,0,0,7.52-11.078A158.745,158.745,0,0,0,277.211,80.3c1.087-2.647,1.835-5.932-.382-8.477a38.919,38.919,0,0,0-6.372-5.556c-1.342-.987-2.523-.546-3.415,1.166-2.71,5.21-5.71,10.272-8.37,15.507-.464.914.034,2.428.342,3.6" transform="translate(-10.088 -2.786)" fill="#fff"/>
            <path id="Tracé_41" data-name="Tracé 41" d="M253.188,190.646c-6.462-4.892-14.111-7.186-22.4-10.1-3.784-.645-8.349-1.71-12.971-2.116a37.714,37.714,0,0,0-10.087.589c-2.761.513-3.143,2.144-1.2,4.247a18.261,18.261,0,0,0,5.157,4.194,150.251,150.251,0,0,0,16.708,7.232,60.181,60.181,0,0,0,22.707,3.486c2.13-.118,5.065.153,5.752-2.431.671-2.52-1.922-3.781-3.664-5.1" transform="translate(-8.699 -7.555)" fill="#fff"/>
            <path id="Tracé_42" data-name="Tracé 42" d="M300.183,101.453c-.989-1.362-2.167-2.586-3.534-4.2-6.18,11.073-13.062,20.96-23.42,28.458,2.115,1.438,3.925,2.68,5.747,3.907,4.222,2.843,7.913,1.609,10.755-1.973,3.913-4.932,7.478-10.142,11.139-15.271,2.71-3.794,1.835-7.453-.688-10.925" transform="translate(-11.577 -4.121)" fill="#fff"/>
            <path id="Tracé_43" data-name="Tracé 43" d="M276.611,133.634c-7.449-4.543-14.871-9.132-22.348-13.63a15.179,15.179,0,0,0-3.453-.983c.166,1.709.207,3.119.456,4.491.509,2.8,1.027,5.612,1.726,8.373,1.863,7.343,1.187,14.307-2.752,20.878-1.1,1.834-2.059,3.753-3.084,5.633-.329-.164-.659-.329-.989-.492.3-.872.614-1.735.886-2.615,1.819-5.877,4.63-11.6,3.166-18.034-1.153-5.071-2.482-10.1-3.642-15.166a22.642,22.642,0,0,0-6.111-10.862c-2.426-2.507-4.668-5.19-7-7.788-1.153-1.286-1.972-2.708-.914-4.365,1.073-1.681,2.718-1.82,4.53-1.3,2.506.72,5,1.524,7.559,2.005,2.273.428,4.784,1.418,6.66-1.013a53.719,53.719,0,0,0,3.808-5.18,4.242,4.242,0,0,0-.831-5.846,42.821,42.821,0,0,0-5.285-4.114c-5.011-3.073-10.066-6.089-15.229-8.894-2.652-1.441-5.661-1.695-8.068.536a110.078,110.078,0,0,0-18.285,21.66,11.581,11.581,0,0,0-1.636,9.478c1.208,4.771,2.248,9.6,3.066,14.449,2.128,12.6,7.166,23.62,16.927,32.192a4.193,4.193,0,0,1,.678,1.272l-.493.567c-3.72-2.78-6.575-6.889-11.869-8.429-2.185,7.988-4.314,15.77-6.456,23.6,19.736-2.684,36.328,4.908,52.426,16.524,2.231-8.153,4.317-15.866,6.461-23.562a9.577,9.577,0,0,1,3.7-5.65,12.39,12.39,0,0,0,4.161-5.105c1.708-4.227,2.7-8.737,4.273-13.026.971-2.649.16-4.264-2.035-5.6" transform="translate(-8.702 -3.119)" fill="#fff"/>
            <rect id="Rectangle_14" data-name="Rectangle 14" width="465.956" height="243.495" fill="none"/>
          </g>
        </g>
      </g>
    </g>
  </g>
</svg>
