<svg xmlns="http://www.w3.org/2000/svg" xmlns:xlink="http://www.w3.org/1999/xlink" width="499" height="524.722" viewBox="0 0 499 524.722">
  <defs>
    <clipPath id="clip-path">
      <rect id="Rectangle_1" data-name="Rectangle 1" width="486.572" height="254.269" fill="none"/>
    </clipPath>
  </defs>
  <g id="Groupe_103" data-name="Groupe 103" transform="translate(-127.62 -808.66)">
    <g id="Groupe_102" data-name="Groupe 102">
      <g id="Groupe_14" data-name="Groupe 14" transform="matrix(1, 0.017, -0.017, 1, 135.59, 808.66)">
        <path id="Tracé_1" data-name="Tracé 1" d="M181.2,16.607,145.456,152.1h15.281l-8.412,31.45h-15.28l-14.3,54.221H83.074l14.3-54.221H16.907L24.336,155.6,130.6,16.607ZM64.429,152.1h41.354l22.291-84.431Z" fill="#fff"/>
        <g id="Groupe_2" data-name="Groupe 2">
          <g id="Groupe_1" data-name="Groupe 1" clip-path="url(#clip-path)">
            <path id="Tracé_2" data-name="Tracé 2" d="M181.378,16.605,145.456,152.1h25.281l-8.412,31.45h-25.28l-15.334,62.239H82.039l15.333-62.239H6.907L14.336,155.6,140.772,16.605ZM64.429,152.1h41.354l13.545-51.3,8.746-33.128Z" fill="#365b6d" stroke="#365b6d" stroke-miterlimit="10" stroke-width="12"/>
            <path id="Tracé_3" data-name="Tracé 3" d="M287.885,194.826q-12.339,46.444-69.393,46.443-46.821,0-46.821-31.337a57.789,57.789,0,0,1,2.243-15.106l35.747-135.27Q222,13,278.912,13q46.962,0,46.963,31.45a57.855,57.855,0,0,1-2.243,15.106Z" fill="#365b6d" stroke="#365b6d" stroke-width="1"/>
            <path id="Tracé_4" data-name="Tracé 4" d="M287.885,194.826q-12.339,46.444-69.393,46.443-46.821,0-46.821-31.337a57.789,57.789,0,0,1,2.243-15.106l35.747-135.27Q222,13,278.912,13q46.962,0,46.963,31.45a57.855,57.855,0,0,1-2.243,15.106Z" fill="none" stroke="#365b6d" stroke-miterlimit="10" stroke-width="26"/>
            <path id="Tracé_5" data-name="Tracé 5" d="M435.562,194.826q-12.345,46.443-69.43,46.443-46.846,0-46.846-31.338a57.748,57.748,0,0,1,2.245-15.1L357.3,59.556Q369.637,13,426.584,13q46.987,0,46.988,31.45a57.818,57.818,0,0,1-2.244,15.106Zm8.255-146.612a16.266,16.266,0,0,0,.636-5.424q-.813-10.443-21.84-8.81l-.42.033q-25.657,1.995-30.313,18.242L349.343,198.873a16.206,16.206,0,0,0-.637,5.424q.813,10.447,21.84,8.81,26.073-2.028,30.734-18.274Z" fill="#fff"/>
            <path id="Tracé_6" data-name="Tracé 6" d="M435.562,194.826q-12.345,46.443-69.43,46.443-46.846,0-46.846-31.338a57.748,57.748,0,0,1,2.245-15.1L357.3,59.556Q369.637,13,426.584,13q46.987,0,46.988,31.45a57.818,57.818,0,0,1-2.244,15.106Zm8.255-146.612a16.266,16.266,0,0,0,.636-5.424q-.813-10.443-21.84-8.81l-.42.033q-25.657,1.995-30.313,18.242L349.343,198.873a16.206,16.206,0,0,0-.637,5.424q.813,10.447,21.84,8.81,26.073-2.028,30.734-18.274Z" fill="#365b6d" stroke="#365b6d" stroke-miterlimit="10" stroke-width="26"/>
            <path id="Tracé_7" data-name="Tracé 7" d="M262,120.1c5.462,3.208,7.5,4.582,13.55-.568,6.854-5.831,11.27-13.176,15.434-20.958,3.327-6.218,2.72-11.4-1.924-16.328a31.341,31.341,0,0,0-3.947-3.077c-6.482,14.916-13.149,28.98-25.543,39.317.751.5,1.563,1.1,2.43,1.614" fill="#fff"/>
            <path id="Tracé_8" data-name="Tracé 8" d="M243.491,76.885c2.415,1.59,4.806,3.219,7.238,4.783,2.876,1.852,4.729,1.518,6.49-1.4a135.788,135.788,0,0,0,7.455-13.082c2.237-4.851,1.571-8.636-4.175-10.08a6.987,6.987,0,0,0-7.652,1.578,117.184,117.184,0,0,0-10.833,11.962c-2.144,2.76-1.463,4.3,1.477,6.236" fill="#fff"/>
            <path id="Tracé_9" data-name="Tracé 9" d="M259.94,87.453c.436,1.655,1.792,3.326,1.6,4.846-1.106,8.846-8.385,13.581-16.867,11.312-2.029-.543-4.1-.924-6.154-1.38q-.218.439-.434.881c2.349,2.877,4.4,6.086,7.133,8.536,2.554,2.29,5.367,5.661,9.451,3.662a26.8,26.8,0,0,0,8.307-5.941A64.4,64.4,0,0,0,270.83,97.8a165.772,165.772,0,0,0,8.112-16.861c1.135-2.764,1.916-6.194-.4-8.852a40.641,40.641,0,0,0-6.654-5.8c-1.4-1.031-2.635-.57-3.566,1.218-2.83,5.441-5.963,10.726-8.74,16.193-.485.954.035,2.535.357,3.756" fill="#fff"/>
            <path id="Tracé_10" data-name="Tracé 10" d="M255.306,191.192c-6.748-5.108-14.735-7.5-23.394-10.548-3.951-.674-8.718-1.786-13.545-2.21a39.383,39.383,0,0,0-10.533.615c-2.883.536-3.282,2.239-1.253,4.435a19.069,19.069,0,0,0,5.385,4.38,156.9,156.9,0,0,0,17.447,7.552,62.844,62.844,0,0,0,23.712,3.64c2.224-.123,5.289.16,6.007-2.539.7-2.632-2.007-3.948-3.826-5.325" fill="#fff"/>
            <path id="Tracé_11" data-name="Tracé 11" d="M301.376,101.639c-1.033-1.422-2.263-2.7-3.69-4.382-6.453,11.563-13.64,21.887-24.456,29.717,2.209,1.5,4.1,2.8,6,4.08,4.409,2.969,8.263,1.68,11.231-2.06,4.086-5.15,7.809-10.591,11.632-15.947,2.83-3.962,1.916-7.783-.718-11.408" fill="#fff"/>
            <path id="Tracé_12" data-name="Tracé 12" d="M279.762,136.289c-7.779-4.744-15.529-9.536-23.337-14.233a15.851,15.851,0,0,0-3.606-1.027c.173,1.785.216,3.257.476,4.69.532,2.927,1.072,5.86,1.8,8.743,1.945,7.668,1.24,14.94-2.874,21.8-1.148,1.915-2.15,3.919-3.22,5.882-.344-.171-.688-.344-1.033-.514.31-.911.641-1.812.925-2.731,1.9-6.137,4.835-12.115,3.306-18.832-1.2-5.295-2.592-10.546-3.8-15.837a23.643,23.643,0,0,0-6.381-11.343c-2.533-2.618-4.875-5.42-7.309-8.133-1.2-1.343-2.059-2.828-.954-4.558,1.12-1.755,2.838-1.9,4.73-1.356,2.617.752,5.225,1.591,7.893,2.094,2.374.447,5,1.481,6.955-1.058a56.1,56.1,0,0,0,3.976-5.409c1.277-2.145,1.161-4.369-.868-6.105a44.716,44.716,0,0,0-5.519-4.3c-5.233-3.209-10.511-6.358-15.9-9.288-2.769-1.5-5.911-1.77-8.425.56A114.948,114.948,0,0,0,207.5,97.958a12.093,12.093,0,0,0-1.708,9.9c1.261,4.982,2.347,10.022,3.2,15.088,2.222,13.162,7.483,24.665,17.676,33.616a4.379,4.379,0,0,1,.708,1.328l-.515.592c-3.885-2.9-6.866-7.194-12.394-8.8-2.282,8.341-4.505,16.468-6.742,24.647,20.609-2.8,37.935,5.125,54.746,17.255,2.33-8.514,4.508-16.568,6.747-24.6a10,10,0,0,1,3.861-5.9,12.939,12.939,0,0,0,4.345-5.331c1.784-4.414,2.821-9.124,4.462-13.6,1.014-2.766.167-4.453-2.125-5.852" fill="#fff"/>
            <path id="Tracé_13" data-name="Tracé 13" d="M114.326,147.269Z" fill="#606060"/>
          </g>
        </g>
      </g>
      <text id="Coups_de_MAIN" data-name="Coups de 
MAIN" transform="translate(127.62 1153.382)" fill="#365b6d" font-size="85" font-family="Montserrat-Black, Montserrat" font-weight="800"><tspan x="0" y="0">COUPS DE </tspan><tspan font-size="169"><tspan x="0" y="138">MAIN</tspan></tspan></text>
    </g>
  </g>
</svg>
